<svg xmlns="http://www.w3.org/2000/svg" width="478" height="482" viewBox="0 0 478 482" fill="none"><metadata><rdf:RDF xmlns:rdf="http://www.w3.org/1999/02/22-rdf-syntax-ns#" xmlns:dc="http://purl.org/dc/elements/1.1/"><rdf:Description><dc:creator>RealFaviconGenerator</dc:creator><dc:source>https://realfavicongenerator.net</dc:source></rdf:Description></rdf:RDF></metadata><rect x="0.5" y="0.5" width="477" height="481" rx="117.5" fill="black" stroke="black"></rect><path d="M350.213 93.2682C358.968 93.1567 367.925 93.3617 376.7 93.2679C379.36 93.2395 389.873 93.0478 391.72 93.4649C391.83 93.9608 391.903 94.4644 391.935 94.9712C392.158 97.988 392.045 102.246 392.045 105.352L392.035 123.487L392.018 140.928C392.015 142.646 392.393 149.359 391.445 150.453C389.683 150.763 384.093 150.595 382.028 150.589L361.723 150.471C356.073 155.502 348.313 164.06 342.673 169.665L289.384 223.671L168.894 345.115C163.868 350.203 129.858 385.688 126.951 386.958C123.346 387.365 114.877 387.24 111.041 387.228C102.992 387.198 94.3335 387.465 86.3428 387.203C85.5983 382.54 86.1885 370.8 86.1865 365.29C86.1829 355.295 86.3071 345.16 86.0674 335.125C86.032 333.642 85.7889 330.077 86.6571 329.2C88.6268 328.949 94.1219 329.253 96.452 329.262C103.25 329.288 110.372 329.015 117.123 329.36C121.691 323.936 126.345 319.763 131.268 314.765L152.471 293.17C155.204 290.406 158.081 287.735 160.777 284.937C202.653 241.86 244.806 199.05 287.231 156.513C292.421 151.27 297.436 145.856 302.582 140.581L335.483 107.374C338.345 104.523 347.363 94.9272 350.213 93.2682Z" fill="#FEFEFE"></path><path d="M185.593 93.1169C189.505 92.8965 194.63 93.0951 198.633 93.1491C204.386 93.2398 210.14 93.2542 215.894 93.1922C235.909 93.1329 255.948 93.0546 275.967 93.0307C276.803 93.0297 277.123 92.9049 277.845 93.3564C277.851 94.1926 276.403 95.6082 275.805 96.2311C259.584 113.123 242.647 129.308 226.412 146.18C224.961 147.687 223.576 149.188 221.785 150.295C199.037 152.058 176.33 145.133 157.803 164.332C144.234 178.394 144.084 194.847 144.031 213.184L144.054 236.082L144.074 271.551C140.205 272.046 131.137 271.682 126.927 271.751C113.59 271.97 99.754 271.41 86.4409 271.836C86.2391 266.328 86.4556 261.079 86.4869 255.577L86.4977 229.321C86.4914 199.568 84.356 176.301 98.9778 148.555C116.442 115.415 147.754 95.0062 185.593 93.1169Z" fill="#FEFEFE"></path><path d="M334.226 210.05C338.315 210.502 346.798 210.329 351.2 210.329C361.05 210.272 370.903 210.3 380.753 210.414C382.57 210.429 390.277 210.256 391.592 210.809C392.017 212.076 392.05 213.588 392.06 214.923L391.992 254.91C391.982 271.138 392.655 289.181 388.62 305.038C381.632 332.49 367.532 355.08 343.395 370.398C315.303 388.225 289.2 387.463 257.563 387.64L219.5 387.685C213.55 387.683 204.979 387.985 199.286 387.38C202.308 383.148 210.5 375.79 214.325 371.948L247.622 338.478C249.173 336.923 255.963 329.422 256.783 329.377C266.734 328.837 283.84 329.952 293.34 328.794C313.153 326.397 329.077 311.342 332.582 291.695C334.202 282.989 333.765 268.985 333.773 259.729L333.757 220.833C333.754 218.993 333.475 211.006 334.226 210.05Z" fill="#FEFEFE"></path><style>@media (prefers-color-scheme: light) { :root { filter: none; } }
@media (prefers-color-scheme: dark) { :root { filter: invert(100%); } }
</style></svg>